######## ######## ######## ##          ######## ########  ######## ######## 
##       ##       ##       ##          ##       ##     ## ##       ##       
##       ##       ##       ##          ##       ##     ## ##       ##       
######   ######   ######   ##          ######   ########  ######   ######   
##       ##       ##       ##          ##       ##   ##   ##       ##       
##       ##       ##       ##          ##       ##    ##  ##       ##       
##       ######## ######## ########    ##       ##     ## ######## ######## 

Genre:Comedy | Horror 
 Language:English
 IMDb: 
http://www.imdb.com/title/tt1465522/
 Source:DVD
 Subtitles:Romana

 Format : MPEG-4
 Format profile : Base Media
 Codec ID : isom
 File size : 1.02 GiB
 Duration : 1h 24mn
 Overall bit rate : 1 722 Kbps

 Video
 Codec ID : avc1
 Codec ID/Info : Advanced Video Coding
 Duration : 1h 24mn
 Bit rate mode : Variable
 Bit rate : 1 554 Kbps
 Width : 720 pixels
 Height : 304 pixels
 Display aspect ratio : 2.35:1
 Frame rate mode : Constant
 Frame rate : 29.970 fps
 Original frame rate : 29.000 fps
 Color space : YUV
 Chroma subsampling : 4:2:0
 Bit depth : 8 bits
 Scan type : Progressive
 Bits/(Pixel*Frame) : 0.237
 Stream size : 944 MiB (90%)

 Audio
 ID : 1
 Format : AAC
 Format/Info : Advanced Audio Codec
 Format version : Version 4
 Format profile : LC
 Codec ID : 40
 Duration : 1h 24mn
 Bit rate mode : Constant
 Bit rate : 160 Kbps
 Channel(s) : 2 channels
 Channel positions : Front: L R
 Sampling rate : 48.0 KHz
 Stream size : 97.2 MiB (9%)
 Language : English



 Plot:
 Tucker & Dale are on vacation at their dilapidated mountain cabin when they are attacked by a group of preppy college kids. 

 
Greets:

 INK,CRYS,IMAGINE,LKRG,FXG,3Li,FLAWL3SS,TA,iLLUSiON,ViSiON,DTRG SAFCuk009,LU,TheFalcon007,MYSTiC,PrisM,Noir,WBZ,LAP,Rx,Kingdom,SAFCuk009+Fabreezy,HDLiTE,TWiZTED,ExtraTorrentRG.ELEKTRI4KA,MAGNAT,CM8
 And to all the other p2p grps past and present





----------------------------------                    
http://thepiratebay.org/user/hiest
----------------------------------





Screenshots:
 
http://www.pix2links.com/images/58380774865269299517.png
 
http://www.pix2links.com/images/47194447718071541839.png
 
http://www.pix2links.com/images/56009724808455968259.png
 
http://www.pix2links.com/images/03766774888415915100.png
 
http://www.pix2links.com/images/63251760716800093824.png


######## ######## ######## ##          ######## ########  ######## ######## 
##       ##       ##       ##          ##       ##     ## ##       ##       
##       ##       ##       ##          ##       ##     ## ##       ##       
######   ######   ######   ##          ######   ########  ######   ######   
##       ##       ##       ##          ##       ##   ##   ##       ##       
##       ##       ##       ##          ##       ##    ##  ##       ##       
##       ######## ######## ########    ##       ##     ## ######## ######## 